<svg stroke="currentColor" fill="none" stroke-width="0" xmlns="http://www.w3.org/2000/svg" viewBox="0 0 20 20" width="24" height="24"><path d="M5.50008 9.93584C9.72725 2.05724 14.9909 1.96639 17.0943 2.90579C18.0338 5.00921 17.9428 10.2728 10.0643 14.5C9.98258 14.0303 9.52825 12.7999 8.36417 11.6359C7.20018 10.4719 5.96978 10.0175 5.50008 9.93584Z" stroke="currentColor" stroke-width="1.25" stroke-linecap="round" stroke-linejoin="round"></path><path d="M11.1251 14.125C12.6572 14.875 12.8208 16.2198 13.033 17.5C13.033 17.5 16.2418 15.1279 14.1893 11.875" stroke="currentColor" stroke-width="1.25" stroke-linecap="round" stroke-linejoin="round"></path><path d="M5.87497 8.93943C5.12497 7.40738 3.78012 7.2438 2.5 7.03156C2.5 7.03156 4.87208 3.82269 8.12498 5.87529" stroke="currentColor" stroke-width="1.25" stroke-linecap="round" stroke-linejoin="round"></path><path d="M5.01508 12.4263C4.58855 12.8528 3.86345 14.0897 4.37528 15.6253C5.91078 16.1371 7.14772 15.4119 7.57425 14.9854" stroke="currentColor" stroke-width="1.25" stroke-linecap="round" stroke-linejoin="round"></path><path d="M14.4173 7.04183C14.4173 6.23641 13.7644 5.5835 12.959 5.5835C12.1536 5.5835 11.5007 6.23641 11.5007 7.04183C11.5007 7.84724 12.1536 8.50016 12.959 8.50016C13.7644 8.50016 14.4173 7.84724 14.4173 7.04183Z" stroke="currentColor" stroke-width="1.25"></path></svg>